<svg width="120" height="80" viewBox="0 0 120 80" fill="none" xmlns="http://www.w3.org/2000/svg">
<path d="M52.3077 33.7539C52.3078 31.8094 54.3601 30.5806 56.0299 31.525L66.404 37.3914C68.122 38.3632 68.122 40.8791 66.404 41.8508L56.0299 47.7172C54.3601 48.6616 52.3078 47.4327 52.3077 45.4883V33.7539Z" fill="#BBBBBB"/>
<path fill-rule="evenodd" clip-rule="evenodd" d="M48.7583 2.64375C48.7583 4.84714 48.8301 5.45784 49.0678 6.2375C49.448 7.45769 49.9944 8.27143 50.8736 8.84766L51.6106 9.35625H68.3894L69.1264 8.84766C70.0056 8.27142 70.5282 7.49158 70.9322 6.2375C71.1937 5.45784 71.2417 4.88104 71.2417 2.64375V0H83.0769V80H71.2417V77.3219C71.2417 74.9493 71.1938 74.5424 70.8849 73.6273C70.4809 72.3731 69.9343 71.6271 69.055 71.0508C68.4133 70.644 68.128 70.6102 60 70.6102C51.872 70.6102 51.5867 70.644 50.945 71.0508C50.0895 71.5932 49.5191 72.3731 49.1151 73.6273C48.8062 74.5424 48.7583 74.9832 48.7583 77.3219V80H36.9231V0H48.7583V2.64375ZM76.8262 66.4406C75.2104 66.4406 75.1866 66.4407 74.7589 67.0508C74.3311 67.6609 74.3307 67.661 74.3307 70.2711C74.3307 73.1523 74.4498 73.7965 75.0676 74.2711C75.5666 74.6439 77.7052 74.6779 78.3947 74.3391C79.1314 73.9662 79.2743 73.2882 79.2743 70.3055C79.2743 67.6616 79.2746 67.6608 78.8469 67.0508C78.4429 66.4745 78.3947 66.4745 76.8262 66.4406ZM40.6543 67.1188C40.2979 67.7288 40.2742 67.8308 40.2742 70.5086C40.2742 74.339 40.5118 74.6778 42.9597 74.5422C44.2666 74.4744 44.4092 74.4406 44.7656 73.8984C45.1696 73.3561 45.1698 73.322 45.1698 70.407V67.4578L44.7656 66.9492C44.3854 66.5086 44.2427 66.4742 42.6743 66.4742H41.0344L40.6543 67.1188ZM42.6983 56.2711C41.1773 56.2711 41.1294 56.305 40.7016 56.8813L40.2742 57.4914V63.1867L40.7016 63.7969C41.1294 64.3731 41.1772 64.407 42.6029 64.407C45.0033 64.407 45.2411 64.0339 45.2411 60.3391C45.2411 57.7628 45.0749 56.9149 44.5282 56.4742C44.3615 56.3387 43.5298 56.2372 42.6983 56.2711ZM76.8029 56.2711C75.1868 56.2711 75.1626 56.2711 74.7348 56.8813L74.3074 57.4914L74.3547 60.4406C74.4022 63.3554 74.4024 63.3559 74.8062 63.8641C75.1864 64.3386 75.3294 64.3727 76.8029 64.3727C78.2762 64.3727 78.4186 64.3386 78.7988 63.8641C79.2028 63.3896 79.2028 63.3557 79.2503 60.4406L79.2984 57.4914L78.8702 56.8813C78.4425 56.2373 78.4186 56.2372 76.8029 56.2711ZM68.5081 18.9828C67.6265 18.644 52.0672 18.7118 51.3732 18.9828C50.4226 19.4235 49.5664 20.4406 49.1624 21.6609L48.7583 22.7797V57.1867L49.1391 58.3055C49.5907 59.5934 50.5413 60.6782 51.4919 61.0172C52.3025 61.3561 67.7699 61.3558 68.5081 61.0508C69.4588 60.6779 70.4098 59.593 70.8376 58.3727L71.2417 57.2539V22.8133L70.8609 21.6945C70.4093 20.4066 69.4587 19.3218 68.5081 18.9828ZM42.841 46.068C40.3931 46.1019 40.2982 46.2373 40.2982 50.1695V52.9828L40.7257 53.593C41.1535 54.2031 41.1774 54.2031 42.7697 54.2031C44.2668 54.2031 44.4094 54.1691 44.7897 53.6945C45.1935 53.2202 45.1936 53.1858 45.2411 50.3727L45.2885 47.5258L44.7656 46.7797L44.2668 46.0336L42.841 46.068ZM78.466 46.3055C77.9432 45.9665 75.5197 45.966 75.0203 46.3727C74.4024 46.8811 74.3071 47.458 74.2834 50.3055V52.9828L74.7115 53.593C75.1393 54.2031 75.1628 54.2031 76.7788 54.2031C78.3949 54.2031 78.4191 54.2031 78.8469 53.593C79.2745 52.9831 79.2743 52.9487 79.2743 50.3391C79.2743 47.4238 79.1315 46.7461 78.466 46.3055ZM43.0544 35.9664C40.488 35.7631 40.298 36.0683 40.2742 39.9664C40.2742 42.1355 40.3215 42.8135 40.5116 43.2203C40.8443 44 41.7001 44.2375 43.2212 44.068C44.3143 43.9324 44.5518 43.8643 44.837 43.3898C45.1459 42.9153 45.1698 42.7119 45.1698 39.9664C45.1698 37.1534 45.17 37.0847 44.8137 36.5766C44.481 36.1359 44.2902 36.0681 43.0544 35.9664ZM77.2776 35.9664C75.5192 35.8647 75.0912 35.9999 74.6635 36.7117C74.3308 37.288 74.3074 37.4576 74.3074 40.0336C74.3074 42.6777 74.3075 42.7122 74.7115 43.3563C75.1391 43.9999 75.1393 43.9997 76.7788 44.0336L78.4187 44.068L78.8469 43.3898C79.2746 42.712 79.2743 42.6778 79.2743 40C79.2743 37.322 79.2742 37.2878 78.8702 36.6438C78.4663 36.0338 78.3945 35.9664 77.2776 35.9664ZM42.7224 25.8641C41.1303 25.8641 41.1059 25.8644 40.6783 26.4742L40.2502 27.0844V29.8305C40.2502 31.3215 40.3216 32.7448 40.3929 32.9828C40.6781 33.7286 41.3198 34 42.817 34H44.2195L45.2652 32.5086L45.2171 29.6609C45.1696 26.8475 45.1696 26.8475 44.7656 26.3391C44.3855 25.8646 44.243 25.8302 42.7224 25.8641ZM76.8029 25.8305C75.1868 25.8305 75.1626 25.8305 74.7348 26.4406C74.3071 27.0507 74.3074 27.0509 74.3074 29.6609C74.3074 33.5931 74.5211 33.9664 76.7788 33.9664C79.0604 33.9664 79.2743 33.5928 79.2743 29.6945C79.2743 27.0511 79.2746 27.0506 78.8469 26.4406C78.4429 25.8305 78.395 25.8305 76.8029 25.8305ZM76.7788 15.6609C75.3056 15.6609 75.1631 15.6951 74.7829 16.1695C74.3789 16.6441 74.3782 16.678 74.3307 19.593L74.2834 22.5422L74.7115 23.1523C75.1631 23.7625 75.1866 23.7625 76.7788 23.7625C78.2761 23.7625 78.4186 23.7285 78.7988 23.2539L79.203 22.7461V16.6438L78.7988 16.1359C78.4186 15.6614 78.2761 15.627 76.7788 15.6609ZM42.6029 15.6273C41.1772 15.6273 41.1294 15.6613 40.7016 16.2375L40.2742 16.8477V22.5422L40.7016 23.1188C41.1294 23.695 41.1772 23.7289 42.6029 23.7289C45.0033 23.7289 45.2411 23.3559 45.2411 19.6609C45.2411 17.0169 45.0983 16.2708 44.4328 15.8641C44.242 15.7286 43.4104 15.6273 42.6029 15.6273ZM42.8643 5.42344C41.2723 5.38957 40.7259 5.59332 40.4169 6.44063C40.3456 6.67791 40.2742 8.06785 40.2742 9.55938C40.2742 12.1354 40.2979 12.2712 40.6543 12.8813L41.0584 13.5594H42.6983C44.2429 13.5594 44.3854 13.5253 44.7656 13.0508L45.1698 12.5422V9.59297C45.1698 6.67797 45.1696 6.67782 44.7656 6.10156C44.3855 5.52552 44.2901 5.52512 42.8643 5.42344ZM78.466 5.66094C77.9428 5.3221 75.5193 5.35608 75.0203 5.72891C74.4024 6.23738 74.3071 6.81355 74.2834 9.66094V12.3391L74.7115 12.9492C75.1392 13.5592 75.163 13.5594 76.7788 13.5594C78.3949 13.5594 78.4191 13.5594 78.8469 12.9492C79.2746 12.3392 79.2743 12.3045 79.2743 9.69453C79.2743 6.7796 79.1315 6.1016 78.466 5.66094Z" fill="#BBBBBB"/>
<path d="M10.2562 35.8359C10.2562 34.5396 11.6249 33.7204 12.7381 34.35L19.6537 38.2609C20.799 38.9088 20.799 40.5858 19.6537 41.2336L12.7381 45.1445C11.6249 45.7741 10.2563 44.9549 10.2562 43.6586V35.8359Z" fill="#BBBBBB"/>
<path fill-rule="evenodd" clip-rule="evenodd" d="M7.88987 15.0961C7.88988 16.5646 7.93807 16.9718 8.09645 17.4914C8.34996 18.3049 8.71445 18.8479 9.30063 19.232L9.79192 19.5711H20.9773L21.4686 19.232C22.0548 18.8479 22.4034 18.3275 22.6728 17.4914C22.847 16.9718 22.8794 16.5872 22.8794 15.0961V13.3336H30.7692V66.6664H22.8794V64.8813C22.8794 63.2995 22.8472 63.028 22.6412 62.418C22.3719 61.582 22.0074 61.0849 21.4213 60.7008C20.9935 60.4296 20.8033 60.407 15.3846 60.407C9.96594 60.407 9.77575 60.4296 9.34796 60.7008C8.7777 61.0623 8.39733 61.582 8.128 62.418C7.92208 63.028 7.88988 63.3221 7.88987 64.8813V66.6664H0V13.3336H7.88987V15.0961ZM26.6023 57.6273C25.5253 57.6273 25.5089 57.627 25.2239 58.0336C24.9387 58.4404 24.9384 58.4406 24.9384 60.1805C24.9384 62.1012 25.0178 62.5313 25.4297 62.8477C25.7626 63.0961 27.1884 63.1188 27.648 62.893C28.139 62.6444 28.2339 62.192 28.2339 60.2039C28.2339 58.4413 28.2344 58.4403 27.9492 58.0336C27.68 57.6496 27.6476 57.6499 26.6023 57.6273ZM2.48723 58.0789C2.24961 58.4856 2.23407 58.5539 2.23407 60.3391C2.23408 62.8925 2.39251 63.1185 4.02419 63.0281C4.89529 62.9829 4.99088 62.9605 5.22837 62.5992C5.49771 62.2376 5.49805 62.2144 5.49805 60.2711V58.3055L5.22837 57.9664C4.97491 57.6727 4.87976 57.6492 3.83413 57.6492H2.74114L2.48723 58.0789ZM3.84991 50.8477C2.83615 50.8477 2.80394 50.8698 2.51878 51.2539L2.23407 51.6609V55.4578L2.51878 55.8648C2.8039 56.2489 2.8364 56.2711 3.78681 56.2711C5.38681 56.2711 5.54537 56.0224 5.54537 53.5594C5.54537 51.8419 5.43428 51.2766 5.06986 50.9828C4.95837 50.8925 4.40402 50.8251 3.84991 50.8477ZM26.5865 50.8477C25.5094 50.8477 25.4931 50.8474 25.2081 51.2539L24.9226 51.6609L24.9542 53.6273C24.9859 55.5702 24.9862 55.5706 25.2554 55.9094C25.5089 56.2257 25.6042 56.2484 26.5865 56.2484C27.5686 56.2484 27.6635 56.2256 27.9169 55.9094C28.1862 55.5931 28.1865 55.5704 28.2181 53.6273L28.2505 51.6609L27.965 51.2539C27.6799 50.8247 27.6637 50.8251 26.5865 50.8477ZM21.0569 25.9883C20.4693 25.7624 10.0971 25.8076 9.63341 25.9883C8.99965 26.2821 8.42891 26.9607 8.15956 27.7742L7.88987 28.5195V51.4578L8.14378 52.2039C8.44486 53.0624 9.07868 53.7857 9.71229 54.0117C10.2527 54.2376 20.5648 54.2369 21.0569 54.0336C21.6906 53.7849 22.3245 53.0619 22.6097 52.2484L22.8794 51.5023V28.5422L22.6255 27.7961C22.3244 26.9376 21.6906 26.2143 21.0569 25.9883ZM3.94531 44.0453C2.31337 44.0679 2.24985 44.1582 2.24985 46.7797V48.6555L2.53531 49.0617C2.8205 49.4685 2.83643 49.4688 3.89799 49.4688C4.89569 49.4687 4.99075 49.4459 5.24414 49.1297C5.51337 48.8134 5.51369 48.7903 5.54537 46.9148L5.57692 45.0172L5.22837 44.5195L4.89558 44.0227L3.94531 44.0453ZM27.6953 44.2039C27.3468 43.9779 25.7311 43.9773 25.3981 44.2484C24.9862 44.5874 24.9227 44.972 24.9069 46.8703V48.6555L25.1923 49.0617C25.4775 49.4685 25.4934 49.4688 26.5708 49.4688C27.6479 49.4688 27.664 49.4685 27.9492 49.0617C28.2341 48.6553 28.2339 48.6322 28.2339 46.893C28.2339 44.9497 28.1388 44.4977 27.6953 44.2039ZM4.08729 37.3109C2.37662 37.1754 2.24992 37.3789 2.23407 39.9773C2.23408 41.4234 2.26586 41.8757 2.39258 42.1469C2.61442 42.6665 3.18467 42.8247 4.19847 42.7117C4.92697 42.6214 5.08567 42.5762 5.27569 42.2602C5.48166 41.9438 5.49805 41.8077 5.49805 39.9773C5.49805 38.1028 5.49795 38.0565 5.26067 37.718C5.03885 37.4242 4.91118 37.3787 4.08729 37.3109ZM26.9028 37.3109C25.7307 37.2432 25.4452 37.3333 25.16 37.8078C24.9383 38.1919 24.9226 38.3056 24.9226 40.0227C24.9226 41.7851 24.923 41.8081 25.1923 42.2375C25.4773 42.6666 25.4778 42.6665 26.5708 42.6891L27.6638 42.7117L27.9492 42.2602C28.2343 41.8083 28.2339 41.7851 28.2339 40C28.2339 38.2149 28.2343 38.1917 27.965 37.7625C27.6958 37.3559 27.6474 37.3109 26.9028 37.3109ZM3.86644 30.5758C2.80517 30.5758 2.78873 30.5764 2.50376 30.9828L2.2183 31.3898V33.2203C2.2183 34.2142 2.26544 35.1631 2.31295 35.3219C2.50308 35.819 2.93139 36 3.92954 36H4.86403L5.56115 35.0055L5.5296 33.107C5.49792 31.2319 5.49756 31.2318 5.22837 30.893C4.97494 30.5767 4.87993 30.5532 3.86644 30.5758ZM26.5865 30.5539C25.5094 30.5539 25.4931 30.5536 25.2081 30.9602C24.9229 31.3669 24.9226 31.3673 24.9226 33.107C24.9226 35.7285 25.0656 35.9773 26.5708 35.9773C28.0916 35.9773 28.2339 35.7284 28.2339 33.1297C28.2339 31.3674 28.2343 31.3668 27.9492 30.9602C27.68 30.5536 27.6478 30.5539 26.5865 30.5539ZM26.5708 23.7742C25.5886 23.7742 25.4931 23.797 25.2396 24.1133C24.9705 24.4294 24.9701 24.4526 24.9384 26.3953L24.9069 28.3617L25.1923 28.768C25.4933 29.1747 25.5093 29.175 26.5708 29.175C27.5686 29.175 27.6635 29.1522 27.9169 28.8359L28.1866 28.4977V24.4289L27.9169 24.0906C27.6635 23.7744 27.5686 23.7516 26.5708 23.7742ZM3.78681 23.7516C2.83634 23.7516 2.80396 23.7744 2.51878 24.1586L2.23407 24.5648V28.3617L2.51878 28.7461C2.80392 29.1302 2.83639 29.1523 3.78681 29.1523C5.38682 29.1523 5.54537 28.9037 5.54537 26.4406C5.54537 24.6782 5.45022 24.1806 5.00676 23.9094C4.87954 23.8191 4.32507 23.7516 3.78681 23.7516ZM3.96109 16.9492C2.89973 16.9266 2.53544 17.0625 2.32948 17.6273C2.28196 17.7861 2.23407 18.7123 2.23407 19.7063C2.23407 21.4236 2.24961 21.5144 2.48723 21.9211L2.75691 22.3727H3.84991C4.87966 22.3727 4.9749 22.3499 5.22837 22.0336L5.49805 21.6945V19.7289C5.49805 17.7856 5.49771 17.785 5.22837 17.4008C4.97505 17.0169 4.91123 17.017 3.96109 16.9492ZM27.6953 17.107C27.3463 16.8812 25.731 16.9039 25.3981 17.1523C24.9862 17.4913 24.9227 17.876 24.9069 19.7742V21.5594L25.1923 21.9664C25.4773 22.3729 25.4937 22.3727 26.5708 22.3727C27.6477 22.3727 27.6642 22.373 27.9492 21.9664C28.2344 21.5597 28.2339 21.5361 28.2339 19.7961C28.2339 17.853 28.1389 17.4008 27.6953 17.107Z" fill="#BBBBBB"/>
<path d="M99.4869 35.8359C99.487 34.5396 100.856 33.7204 101.969 34.35L108.884 38.2609C110.03 38.9088 110.03 40.5858 108.884 41.2336L101.969 45.1445C100.856 45.7741 99.487 44.9549 99.4869 43.6586V35.8359Z" fill="#BBBBBB"/>
<path fill-rule="evenodd" clip-rule="evenodd" d="M97.1206 15.0961C97.1207 16.5646 97.1688 16.9718 97.3272 17.4914C97.5807 18.3049 97.9452 18.8479 98.5314 19.232L99.0227 19.5711H110.208L110.699 19.232C111.286 18.8479 111.634 18.3275 111.904 17.4914C112.078 16.9718 112.11 16.5872 112.11 15.0961V13.3336H120V66.6664H112.11V64.8813C112.11 63.2995 112.078 63.028 111.872 62.418C111.603 61.582 111.238 61.0849 110.652 60.7008C110.224 60.4296 110.034 60.407 104.615 60.407C99.1967 60.407 99.0065 60.4296 98.5787 60.7008C98.0085 61.0623 97.6281 61.582 97.3588 62.418C97.1528 63.028 97.1206 63.3221 97.1206 64.8813V66.6664H89.2308V13.3336H97.1206V15.0961ZM115.833 57.6273C114.756 57.6273 114.74 57.627 114.455 58.0336C114.169 58.4404 114.169 58.4406 114.169 60.1805C114.169 62.1012 114.249 62.5313 114.66 62.8477C114.993 63.0961 116.419 63.1188 116.879 62.893C117.37 62.6444 117.465 62.192 117.465 60.2039C117.465 58.4413 117.465 58.4403 117.18 58.0336C116.911 57.6496 116.878 57.6499 115.833 57.6273ZM91.718 58.0789C91.4804 58.4856 91.4648 58.5539 91.4648 60.3391C91.4649 62.8925 91.6233 63.1185 93.255 63.0281C94.1261 62.9829 94.2216 62.9605 94.4591 62.5992C94.7285 62.2376 94.7288 62.2144 94.7288 60.2711V58.3055L94.4591 57.9664C94.2057 57.6727 94.1105 57.6492 93.0649 57.6492H91.9719L91.718 58.0789ZM93.0807 50.8477C92.0669 50.8477 92.0347 50.8698 91.7496 51.2539L91.4648 51.6609V55.4578L91.7496 55.8648C92.0347 56.2489 92.0672 56.2711 93.0176 56.2711C94.6176 56.2711 94.7761 56.0224 94.7761 53.5594C94.7761 51.8419 94.665 51.2766 94.3006 50.9828C94.1891 50.8925 93.6348 50.8251 93.0807 50.8477ZM115.817 50.8477C114.74 50.8477 114.724 50.8474 114.439 51.2539L114.153 51.6609L114.185 53.6273C114.217 55.5702 114.217 55.5706 114.486 55.9094C114.74 56.2257 114.835 56.2484 115.817 56.2484C116.799 56.2484 116.894 56.2256 117.148 55.9094C117.417 55.5931 117.417 55.5704 117.449 53.6273L117.481 51.6609L117.196 51.2539C116.911 50.8247 116.894 50.8251 115.817 50.8477ZM110.288 25.9883C109.7 25.7624 99.3278 25.8076 98.8642 25.9883C98.2304 26.2821 97.6597 26.9607 97.3903 27.7742L97.1206 28.5195V51.4578L97.3746 52.2039C97.6756 53.0624 98.3095 53.7857 98.9431 54.0117C99.4835 54.2376 109.796 54.2369 110.288 54.0336C110.921 53.7849 111.555 53.0619 111.84 52.2484L112.11 51.5023V28.5422L111.856 27.7961C111.555 26.9376 110.921 26.2143 110.288 25.9883ZM93.1761 44.0453C91.5441 44.0679 91.4806 44.1582 91.4806 46.7797V48.6555L91.7661 49.0617C92.0513 49.4685 92.0672 49.4688 93.1288 49.4688C94.1265 49.4687 94.2215 49.4459 94.4749 49.1297C94.7441 48.8134 94.7445 48.7903 94.7761 46.9148L94.8077 45.0172L94.4591 44.5195L94.1264 44.0227L93.1761 44.0453ZM116.926 44.2039C116.578 43.9779 114.962 43.9773 114.629 44.2484C114.217 44.5874 114.153 44.972 114.138 46.8703V48.6555L114.423 49.0617C114.708 49.4685 114.724 49.4688 115.802 49.4688C116.879 49.4688 116.895 49.4685 117.18 49.0617C117.465 48.6553 117.465 48.6322 117.465 46.893C117.465 44.9497 117.37 44.4977 116.926 44.2039ZM93.3181 37.3109C91.6074 37.1754 91.4807 37.3789 91.4648 39.9773C91.4648 41.4234 91.4966 41.8757 91.6233 42.1469C91.8452 42.6665 92.4154 42.8247 93.4292 42.7117C94.1577 42.6214 94.3164 42.5762 94.5065 42.2602C94.7124 41.9438 94.7288 41.8077 94.7288 39.9773C94.7288 38.1028 94.7287 38.0565 94.4914 37.718C94.2696 37.4242 94.142 37.3787 93.3181 37.3109ZM116.134 37.3109C114.961 37.2432 114.676 37.3333 114.391 37.8078C114.169 38.1919 114.153 38.3056 114.153 40.0227C114.153 41.7851 114.154 41.8081 114.423 42.2375C114.708 42.6666 114.709 42.6665 115.802 42.6891L116.895 42.7117L117.18 42.2602C117.465 41.8083 117.465 41.7851 117.465 40C117.465 38.2149 117.465 38.1917 117.196 37.7625C116.927 37.3559 116.878 37.3109 116.134 37.3109ZM93.0972 30.5758C92.0359 30.5758 92.0195 30.5764 91.7345 30.9828L91.4491 31.3898V33.2203C91.4491 34.2142 91.4962 35.1631 91.5437 35.3219C91.7338 35.819 92.1622 36 93.1603 36H94.0948L94.7919 35.0055L94.7604 33.107C94.7287 31.2319 94.7283 31.2318 94.4591 30.893C94.2057 30.5767 94.1107 30.5532 93.0972 30.5758ZM115.817 30.5539C114.74 30.5539 114.724 30.5536 114.439 30.9602C114.154 31.3669 114.153 31.3673 114.153 33.107C114.153 35.7285 114.296 35.9773 115.802 35.9773C117.322 35.9773 117.465 35.7284 117.465 33.1297C117.465 31.3674 117.465 31.3668 117.18 30.9602C116.911 30.5536 116.879 30.5539 115.817 30.5539ZM115.802 23.7742C114.819 23.7742 114.724 23.797 114.47 24.1133C114.201 24.4294 114.201 24.4526 114.169 26.3953L114.138 28.3617L114.423 28.768C114.724 29.1747 114.74 29.175 115.802 29.175C116.799 29.175 116.894 29.1522 117.148 28.8359L117.417 28.4977V24.4289L117.148 24.0906C116.894 23.7744 116.799 23.7516 115.802 23.7742ZM93.0176 23.7516C92.0671 23.7516 92.0347 23.7744 91.7496 24.1586L91.4648 24.5648V28.3617L91.7496 28.7461C92.0347 29.1302 92.0672 29.1523 93.0176 29.1523C94.6176 29.1523 94.7761 28.9037 94.7761 26.4406C94.7761 24.6782 94.681 24.1806 94.2375 23.9094C94.1103 23.8191 93.5558 23.7516 93.0176 23.7516ZM93.1919 16.9492C92.1305 16.9266 91.7662 17.0625 91.5602 17.6273C91.5127 17.7861 91.4648 18.7123 91.4648 19.7063C91.4648 21.4236 91.4804 21.5144 91.718 21.9211L91.9877 22.3727H93.0807C94.1104 22.3727 94.2057 22.3499 94.4591 22.0336L94.7288 21.6945V19.7289C94.7288 17.7856 94.7285 17.785 94.4591 17.4008C94.2058 17.0169 94.142 17.017 93.1919 16.9492ZM116.926 17.107C116.577 16.8812 114.962 16.9039 114.629 17.1523C114.217 17.4913 114.153 17.876 114.138 19.7742V21.5594L114.423 21.9664C114.708 22.3729 114.724 22.3727 115.802 22.3727C116.879 22.3727 116.895 22.373 117.18 21.9664C117.465 21.5597 117.465 21.5361 117.465 19.7961C117.465 17.853 117.37 17.4008 116.926 17.107Z" fill="#BBBBBB"/>
</svg>
